<?xml version="1.0" standalone="no"?>
<!DOCTYPE svg PUBLIC "-//W3C//DTD SVG 20010904//EN"
 "http://www.w3.org/TR/2001/REC-SVG-20010904/DTD/svg10.dtd">
<svg version="1.0" xmlns="http://www.w3.org/2000/svg"
 width="260.000000pt" height="260.000000pt" viewBox="0 0 260.000000 260.000000"
 preserveAspectRatio="xMidYMid meet">
<metadata>
Created by potrace 1.11, written by Peter Selinger 2001-2013
</metadata>
<g transform="translate(0.000000,260.000000) scale(0.100000,-0.100000)"
fill="#000000" stroke="none">
<path d="M1297 2480 c-187 -34 -373 -130 -511 -265 -38 -37 -63 -51 -105 -62
-31 -8 -94 -32 -139 -54 -250 -116 -435 -333 -513 -601 -30 -104 -38 -324 -15
-438 70 -341 335 -628 668 -720 107 -29 110 -27 51 36 -111 118 -196 279 -230
439 -19 90 -19 270 1 361 18 86 56 188 91 248 15 25 39 81 55 126 44 124 95
207 175 286 287 280 754 254 1011 -57 189 -228 205 -569 40 -817 -142 -214
-404 -335 -652 -302 -168 22 -283 79 -405 200 -69 68 -94 102 -127 170 -23 47
-49 110 -57 140 l-15 55 6 -65 c27 -279 193 -552 436 -713 98 -65 189 -106
308 -138 121 -33 345 -33 474 -1 352 88 629 364 722 718 22 82 27 122 28 234
0 76 -5 161 -12 195 -35 159 -98 299 -190 419 -31 39 -71 98 -90 131 -133 228
-346 391 -602 460 -74 20 -325 29 -403 15z"/>
<path d="M1295 1705 c-5 -2 -22 -6 -37 -9 -37 -8 -98 -63 -114 -103 -29 -68
-9 -169 42 -214 117 -103 299 -34 312 116 2 30 2 65 -2 79 -8 32 -60 93 -95
110 -28 14 -90 26 -106 21z"/>
</g>
</svg>
